<svg xmlns="http://www.w3.org/2000/svg"  viewBox="0 0 64 64" width="64px" height="64px"><path d="M54.146 10.854c6.42 6.42 6.42 16.83 0 23.25s-16.83 6.42-23.25 0-6.42-16.83 0-23.25S47.726 4.433 54.146 10.854zM42.698 21.275c1.605 1.605 4.208 1.605 5.813 0 1.605-1.605 1.605-4.208 0-5.813-1.605-1.605-4.208-1.605-5.813 0S41.093 19.67 42.698 21.275zM29.404 35.603c-.012-.012-.023-.026-.035-.039L11 52l-.75-.75 17.297-17.784c-.982-1.265-1.812-2.618-2.487-4.031L7 49l-1 5 3 3h4l3-3h2l2-2v-2l2-2 3 1 2-2-1-3 2-2 4 1 3.225-3.225C33.112 38.727 31.138 37.337 29.404 35.603z"/></svg>